<svg width="25" height="25" viewBox="0 0 25 25" fill="none" xmlns="http://www.w3.org/2000/svg">
<rect opacity="0.01" x="0.5" y="0.5" width="24" height="24" fill="white" stroke="#707070"/>
<g clip-path="url(#clip0_18_901)">
<g clip-path="url(#clip1_18_901)">
<path d="M12.4951 4.41V20.9998" stroke="#231F20"/>
<path d="M12.4951 11.391C13.8731 11.391 14.9902 10.2739 14.9902 8.8959C14.9902 7.51789 13.8731 6.40079 12.4951 6.40079C11.1171 6.40079 10 7.51789 10 8.8959C10 10.2739 11.1171 11.391 12.4951 11.391Z" fill="white" stroke="#231F20"/>
</g>
<g clip-path="url(#clip2_18_901)">
<path d="M19.4287 4.41V20.9998" stroke="#231F20"/>
<path d="M19.4951 18.99C20.8731 18.99 21.9902 17.8729 21.9902 16.4949C21.9902 15.1169 20.8731 13.9998 19.4951 13.9998C18.1171 13.9998 17 15.1169 17 16.4949C17 17.8729 18.1171 18.99 19.4951 18.99Z" fill="white" stroke="#231F20"/>
</g>
<g clip-path="url(#clip3_18_901)">
<path d="M5.49512 4.41V20.9998" stroke="#231F20"/>
<path d="M5.49511 18.99C6.87313 18.99 7.99022 17.8729 7.99022 16.4949C7.99022 15.1169 6.87313 13.9998 5.49511 13.9998C4.1171 13.9998 3 15.1169 3 16.4949C3 17.8729 4.1171 18.99 5.49511 18.99Z" fill="white" stroke="#231F20"/>
</g>
</g>
<defs>
<clipPath id="clip0_18_901">
<rect width="18.9902" height="16.5898" fill="white" transform="translate(3 4.41)"/>
</clipPath>
<clipPath id="clip1_18_901">
<rect width="4.99022" height="16.5898" fill="white" transform="translate(10 4.41)"/>
</clipPath>
<clipPath id="clip2_18_901">
<rect width="4.99022" height="16.5898" fill="white" transform="translate(17 4.41)"/>
</clipPath>
<clipPath id="clip3_18_901">
<rect width="4.99022" height="16.5898" fill="white" transform="translate(3 4.41)"/>
</clipPath>
</defs>
</svg>
