<svg width="22" height="22" viewBox="0 0 22 22" fill="none" xmlns="http://www.w3.org/2000/svg">
<path d="M20 19L15.6569 14.6569M15.6569 14.6569C17.1046 13.2091 18 11.2091 18 9C18 4.58172 14.4183 1 10 1C5.58172 1 2 4.58172 2 9C2 13.4183 5.58172 17 10 17C12.2091 17 14.2091 16.1046 15.6569 14.6569Z" stroke="#261870" stroke-width="1.5" stroke-linecap="round" stroke-linejoin="round"/>
<path d="M20 20L15.6569 15.6569M15.6569 15.6569C17.1046 14.2091 18 12.2091 18 10C18 5.58172 14.4183 2 10 2C5.58172 2 2 5.58172 2 10C2 14.4183 5.58172 18 10 18C12.2091 18 14.2091 17.1046 15.6569 15.6569Z" stroke="#261870" stroke-width="2.5" stroke-linecap="round" stroke-linejoin="round"/>
</svg>
